<mxfile host="app.diagrams.net" modified="2021-11-07T04:47:43.164Z" agent="5.0 (Windows NT 10.0; Win64; x64) AppleWebKit/537.36 (KHTML, like Gecko) Chrome/95.0.4638.69 Safari/537.36" etag="irc1GvdkX69yH8Xekc34" version="15.7.0" type="github">
  <diagram id="hS9ma2Canc2j044MVwWc" name="Page-1">
    <mxGraphModel dx="2942" dy="1114" grid="1" gridSize="10" guides="1" tooltips="1" connect="1" arrows="1" fold="1" page="1" pageScale="1" pageWidth="850" pageHeight="840" math="0" shadow="0">
      <root>
        <mxCell id="0" />
        <mxCell id="1" parent="0" />
        <mxCell id="mrOqeyIxyXcj-caXlAxd-14" value="" style="group" vertex="1" connectable="0" parent="1">
          <mxGeometry width="850" height="840" as="geometry" />
        </mxCell>
        <mxCell id="mrOqeyIxyXcj-caXlAxd-1" value="Pure Python Code" style="swimlane;rounded=0;sketch=1;fillColor=#09555B;strokeColor=#BAC8D3;fontColor=#EEEEEE;" vertex="1" parent="mrOqeyIxyXcj-caXlAxd-14">
          <mxGeometry width="440" height="840" as="geometry" />
        </mxCell>
        <mxCell id="mrOqeyIxyXcj-caXlAxd-5" style="edgeStyle=orthogonalEdgeStyle;curved=1;rounded=1;sketch=1;orthogonalLoop=1;jettySize=auto;html=1;strokeColor=#0B4D6A;" edge="1" parent="mrOqeyIxyXcj-caXlAxd-1" source="mrOqeyIxyXcj-caXlAxd-3" target="mrOqeyIxyXcj-caXlAxd-4">
          <mxGeometry relative="1" as="geometry" />
        </mxCell>
        <mxCell id="mrOqeyIxyXcj-caXlAxd-3" value="Run Python Code" style="shape=process;whiteSpace=wrap;html=1;backgroundOutline=1;rounded=0;sketch=1;fillColor=#09555B;strokeColor=#BAC8D3;fontColor=#EEEEEE;" vertex="1" parent="mrOqeyIxyXcj-caXlAxd-1">
          <mxGeometry x="160" y="80" width="120" height="60" as="geometry" />
        </mxCell>
        <mxCell id="mrOqeyIxyXcj-caXlAxd-7" style="edgeStyle=orthogonalEdgeStyle;curved=1;rounded=1;sketch=1;orthogonalLoop=1;jettySize=auto;html=1;entryX=0.5;entryY=0;entryDx=0;entryDy=0;entryPerimeter=0;strokeColor=#0B4D6A;" edge="1" parent="mrOqeyIxyXcj-caXlAxd-1" source="mrOqeyIxyXcj-caXlAxd-4" target="mrOqeyIxyXcj-caXlAxd-6">
          <mxGeometry relative="1" as="geometry" />
        </mxCell>
        <mxCell id="mrOqeyIxyXcj-caXlAxd-4" value="Create Python Kernel" style="shape=process;whiteSpace=wrap;html=1;backgroundOutline=1;rounded=0;sketch=1;fillColor=#09555B;strokeColor=#BAC8D3;fontColor=#EEEEEE;" vertex="1" parent="mrOqeyIxyXcj-caXlAxd-1">
          <mxGeometry x="160" y="180" width="120" height="60" as="geometry" />
        </mxCell>
        <mxCell id="mrOqeyIxyXcj-caXlAxd-12" value="" style="edgeStyle=orthogonalEdgeStyle;curved=1;rounded=1;sketch=1;orthogonalLoop=1;jettySize=auto;html=1;strokeColor=#0B4D6A;" edge="1" parent="mrOqeyIxyXcj-caXlAxd-1" source="mrOqeyIxyXcj-caXlAxd-6" target="mrOqeyIxyXcj-caXlAxd-9">
          <mxGeometry relative="1" as="geometry" />
        </mxCell>
        <mxCell id="mrOqeyIxyXcj-caXlAxd-6" value="Execute Instructions/Code" style="shape=cylinder3;whiteSpace=wrap;html=1;boundedLbl=1;backgroundOutline=1;size=15;rounded=0;sketch=1;fillColor=#09555B;strokeColor=#BAC8D3;fontColor=#EEEEEE;" vertex="1" parent="mrOqeyIxyXcj-caXlAxd-1">
          <mxGeometry x="190" y="280" width="60" height="80" as="geometry" />
        </mxCell>
        <mxCell id="mrOqeyIxyXcj-caXlAxd-13" value="" style="edgeStyle=orthogonalEdgeStyle;curved=1;rounded=1;sketch=1;orthogonalLoop=1;jettySize=auto;html=1;strokeColor=#0B4D6A;" edge="1" parent="mrOqeyIxyXcj-caXlAxd-1" source="mrOqeyIxyXcj-caXlAxd-9" target="mrOqeyIxyXcj-caXlAxd-11">
          <mxGeometry relative="1" as="geometry" />
        </mxCell>
        <mxCell id="mrOqeyIxyXcj-caXlAxd-9" value="Terminate Kernel" style="shape=process;whiteSpace=wrap;html=1;backgroundOutline=1;rounded=0;sketch=1;fillColor=#09555B;strokeColor=#BAC8D3;fontColor=#EEEEEE;" vertex="1" parent="mrOqeyIxyXcj-caXlAxd-1">
          <mxGeometry x="160" y="630" width="120" height="60" as="geometry" />
        </mxCell>
        <mxCell id="mrOqeyIxyXcj-caXlAxd-11" value="End" style="ellipse;html=1;shape=endState;fillColor=#000000;strokeColor=#ff0000;rounded=0;sketch=1;fontColor=#EEEEEE;" vertex="1" parent="mrOqeyIxyXcj-caXlAxd-1">
          <mxGeometry x="205" y="730" width="30" height="30" as="geometry" />
        </mxCell>
        <mxCell id="mrOqeyIxyXcj-caXlAxd-2" value="Jupyter Notebook" style="swimlane;rounded=0;sketch=1;fillColor=#09555B;strokeColor=#BAC8D3;fontColor=#EEEEEE;" vertex="1" parent="mrOqeyIxyXcj-caXlAxd-14">
          <mxGeometry x="440" width="410" height="840" as="geometry">
            <mxRectangle x="440" width="130" height="23" as="alternateBounds" />
          </mxGeometry>
        </mxCell>
        <mxCell id="mrOqeyIxyXcj-caXlAxd-16" value="Run Python Code" style="shape=process;whiteSpace=wrap;html=1;backgroundOutline=1;rounded=0;sketch=1;fillColor=#09555B;strokeColor=#BAC8D3;fontColor=#EEEEEE;" vertex="1" parent="mrOqeyIxyXcj-caXlAxd-2">
          <mxGeometry x="230" y="80" width="120" height="60" as="geometry" />
        </mxCell>
        <mxCell id="mrOqeyIxyXcj-caXlAxd-25" value="" style="edgeStyle=orthogonalEdgeStyle;curved=1;rounded=1;sketch=1;orthogonalLoop=1;jettySize=auto;html=1;strokeColor=#0B4D6A;" edge="1" parent="mrOqeyIxyXcj-caXlAxd-2" source="mrOqeyIxyXcj-caXlAxd-18" target="mrOqeyIxyXcj-caXlAxd-24">
          <mxGeometry relative="1" as="geometry" />
        </mxCell>
        <mxCell id="mrOqeyIxyXcj-caXlAxd-18" value="Create Python Kernel" style="shape=process;whiteSpace=wrap;html=1;backgroundOutline=1;rounded=0;sketch=1;fillColor=#09555B;strokeColor=#BAC8D3;fontColor=#EEEEEE;" vertex="1" parent="mrOqeyIxyXcj-caXlAxd-2">
          <mxGeometry x="230" y="180" width="120" height="60" as="geometry" />
        </mxCell>
        <mxCell id="mrOqeyIxyXcj-caXlAxd-15" style="edgeStyle=orthogonalEdgeStyle;curved=1;rounded=1;sketch=1;orthogonalLoop=1;jettySize=auto;html=1;strokeColor=#0B4D6A;" edge="1" parent="mrOqeyIxyXcj-caXlAxd-2" source="mrOqeyIxyXcj-caXlAxd-16" target="mrOqeyIxyXcj-caXlAxd-18">
          <mxGeometry relative="1" as="geometry" />
        </mxCell>
        <mxCell id="mrOqeyIxyXcj-caXlAxd-32" value="" style="edgeStyle=orthogonalEdgeStyle;curved=1;rounded=1;sketch=1;orthogonalLoop=1;jettySize=auto;html=1;strokeColor=#0B4D6A;" edge="1" parent="mrOqeyIxyXcj-caXlAxd-2" source="mrOqeyIxyXcj-caXlAxd-20" target="mrOqeyIxyXcj-caXlAxd-31">
          <mxGeometry relative="1" as="geometry" />
        </mxCell>
        <mxCell id="mrOqeyIxyXcj-caXlAxd-20" value="Execute Instructions/Code" style="shape=cylinder3;whiteSpace=wrap;html=1;boundedLbl=1;backgroundOutline=1;size=15;rounded=0;sketch=1;fillColor=#09555B;strokeColor=#BAC8D3;fontColor=#EEEEEE;" vertex="1" parent="mrOqeyIxyXcj-caXlAxd-2">
          <mxGeometry x="260" y="380" width="60" height="80" as="geometry" />
        </mxCell>
        <mxCell id="mrOqeyIxyXcj-caXlAxd-22" value="Terminate Kernel" style="shape=process;whiteSpace=wrap;html=1;backgroundOutline=1;rounded=0;sketch=1;fillColor=#09555B;strokeColor=#BAC8D3;fontColor=#EEEEEE;" vertex="1" parent="mrOqeyIxyXcj-caXlAxd-2">
          <mxGeometry x="230" y="630" width="120" height="60" as="geometry" />
        </mxCell>
        <mxCell id="mrOqeyIxyXcj-caXlAxd-23" value="End" style="ellipse;html=1;shape=endState;fillColor=#000000;strokeColor=#ff0000;rounded=0;sketch=1;fontColor=#EEEEEE;" vertex="1" parent="mrOqeyIxyXcj-caXlAxd-2">
          <mxGeometry x="275" y="730" width="30" height="30" as="geometry" />
        </mxCell>
        <mxCell id="mrOqeyIxyXcj-caXlAxd-21" value="" style="edgeStyle=orthogonalEdgeStyle;curved=1;rounded=1;sketch=1;orthogonalLoop=1;jettySize=auto;html=1;strokeColor=#0B4D6A;" edge="1" parent="mrOqeyIxyXcj-caXlAxd-2" source="mrOqeyIxyXcj-caXlAxd-22" target="mrOqeyIxyXcj-caXlAxd-23">
          <mxGeometry relative="1" as="geometry" />
        </mxCell>
        <mxCell id="mrOqeyIxyXcj-caXlAxd-30" value="" style="edgeStyle=orthogonalEdgeStyle;curved=1;rounded=1;sketch=1;orthogonalLoop=1;jettySize=auto;html=1;strokeColor=#0B4D6A;" edge="1" parent="mrOqeyIxyXcj-caXlAxd-2" source="mrOqeyIxyXcj-caXlAxd-24" target="mrOqeyIxyXcj-caXlAxd-20">
          <mxGeometry relative="1" as="geometry" />
        </mxCell>
        <mxCell id="mrOqeyIxyXcj-caXlAxd-24" value="Create Jupyter Notebook Wrapper" style="shape=process;whiteSpace=wrap;html=1;backgroundOutline=1;rounded=0;sketch=1;fillColor=#09555B;strokeColor=#BAC8D3;fontColor=#EEEEEE;" vertex="1" parent="mrOqeyIxyXcj-caXlAxd-2">
          <mxGeometry x="230" y="280" width="120" height="60" as="geometry" />
        </mxCell>
        <mxCell id="mrOqeyIxyXcj-caXlAxd-31" value="Additional User Interaction" style="shape=process;whiteSpace=wrap;html=1;backgroundOutline=1;rounded=0;sketch=1;fontColor=#EEEEEE;strokeColor=#BAC8D3;fillColor=#09555B;" vertex="1" parent="mrOqeyIxyXcj-caXlAxd-2">
          <mxGeometry x="230" y="500" width="120" height="60" as="geometry" />
        </mxCell>
        <mxCell id="mrOqeyIxyXcj-caXlAxd-39" value="" style="edgeStyle=elbowEdgeStyle;elbow=vertical;endArrow=classic;html=1;rounded=1;sketch=1;strokeColor=#0B4D6A;curved=1;entryX=0.5;entryY=1;entryDx=0;entryDy=0;" edge="1" parent="mrOqeyIxyXcj-caXlAxd-2" source="mrOqeyIxyXcj-caXlAxd-31" target="mrOqeyIxyXcj-caXlAxd-40">
          <mxGeometry width="50" height="50" relative="1" as="geometry">
            <mxPoint x="50" y="580" as="sourcePoint" />
            <mxPoint x="210" y="470" as="targetPoint" />
            <Array as="points">
              <mxPoint x="200" y="540" />
            </Array>
          </mxGeometry>
        </mxCell>
        <mxCell id="mrOqeyIxyXcj-caXlAxd-41" value="No" style="edgeStyle=orthogonalEdgeStyle;curved=1;rounded=1;sketch=1;orthogonalLoop=1;jettySize=auto;html=1;entryX=0;entryY=0.5;entryDx=0;entryDy=0;entryPerimeter=0;strokeColor=#0B4D6A;" edge="1" parent="mrOqeyIxyXcj-caXlAxd-2" source="mrOqeyIxyXcj-caXlAxd-40" target="mrOqeyIxyXcj-caXlAxd-20">
          <mxGeometry relative="1" as="geometry">
            <Array as="points">
              <mxPoint x="140" y="420" />
            </Array>
          </mxGeometry>
        </mxCell>
        <mxCell id="mrOqeyIxyXcj-caXlAxd-42" value="Yes" style="edgeStyle=orthogonalEdgeStyle;curved=1;rounded=1;sketch=1;orthogonalLoop=1;jettySize=auto;html=1;entryX=0;entryY=0.5;entryDx=0;entryDy=0;strokeColor=#0B4D6A;" edge="1" parent="mrOqeyIxyXcj-caXlAxd-2" source="mrOqeyIxyXcj-caXlAxd-40" target="mrOqeyIxyXcj-caXlAxd-22">
          <mxGeometry relative="1" as="geometry">
            <Array as="points">
              <mxPoint x="60" y="480" />
              <mxPoint x="60" y="660" />
            </Array>
          </mxGeometry>
        </mxCell>
        <mxCell id="mrOqeyIxyXcj-caXlAxd-40" value="Is this an Instruction to Quit?" style="rhombus;whiteSpace=wrap;html=1;rounded=0;sketch=1;fontColor=#EEEEEE;strokeColor=#BAC8D3;fillColor=#09555B;" vertex="1" parent="mrOqeyIxyXcj-caXlAxd-2">
          <mxGeometry x="100" y="440" width="80" height="80" as="geometry" />
        </mxCell>
      </root>
    </mxGraphModel>
  </diagram>
</mxfile>
